<svg xmlns="http://www.w3.org/2000/svg" viewBox="0 0 320 320" width="320" height="320">
  <defs>
    <linearGradient id="hexbg" x1="0" y1="0" x2="0" y2="1">
      <stop offset="0" stop-color="#3f82c4"/>
      <stop offset="1" stop-color="#1f4f7e"/>
    </linearGradient>
    <linearGradient id="area" x1="0" y1="0" x2="0" y2="1">
      <stop offset="0" stop-color="#ffffff" stop-opacity="0.34"/>
      <stop offset="1" stop-color="#ffffff" stop-opacity="0.03"/>
    </linearGradient>
  </defs>
  <polygon points="160,10 290,85 290,235 160,310 30,235 30,85"
           fill="url(#hexbg)" stroke="#14375a" stroke-width="12" stroke-linejoin="round"/>
  <path d="M 75 214 C 110 214 126 104 160 104 C 194 104 210 214 245 214 Z" fill="url(#area)"/>
  <path d="M 75 214 C 110 214 126 104 160 104 C 194 104 210 214 245 214"
        fill="none" stroke="#ffffff" stroke-width="9" stroke-linecap="round" stroke-linejoin="round"/>
  <line x1="66" y1="214" x2="254" y2="214" stroke="#ffffff" stroke-opacity="0.5" stroke-width="4"/>
  <line x1="160" y1="98" x2="160" y2="221" stroke="#ffd98a" stroke-width="6" stroke-dasharray="10 9"/>
  <g fill="#ffffff">
    <circle cx="110" cy="214" r="7"/>
    <circle cx="135" cy="214" r="7"/>
    <circle cx="160" cy="214" r="8"/>
    <circle cx="185" cy="214" r="7"/>
    <circle cx="210" cy="214" r="7"/>
  </g>
</svg>
